<mxfile host="app.diagrams.net" modified="2023-10-09T10:31:34.523Z" agent="Mozilla/5.0 (Windows NT 10.0; Win64; x64) AppleWebKit/537.36 (KHTML, like Gecko) Chrome/117.0.0.0 Safari/537.36" etag="Wzi8crJhj0Ztrqi12BKe" version="22.0.4" type="device">
  <diagram name="Сторінка-1" id="LvMZNqTNFgy-ZIBaUPct">
    <mxGraphModel dx="1273" dy="1106" grid="1" gridSize="10" guides="1" tooltips="1" connect="1" arrows="1" fold="1" page="1" pageScale="1" pageWidth="827" pageHeight="1169" math="0" shadow="0">
      <root>
        <mxCell id="0" />
        <mxCell id="1" parent="0" />
        <mxCell id="kk4YantTWwIiyoyyvF-5-1" value="User" style="shape=umlActor;verticalLabelPosition=bottom;verticalAlign=top;html=1;outlineConnect=0;" vertex="1" parent="1">
          <mxGeometry x="840" y="370" width="50" height="100" as="geometry" />
        </mxCell>
        <mxCell id="kk4YantTWwIiyoyyvF-5-8" value="" style="endArrow=none;html=1;rounded=0;exitX=0.5;exitY=0.5;exitDx=0;exitDy=0;exitPerimeter=0;" edge="1" parent="1" source="kk4YantTWwIiyoyyvF-5-1" target="kk4YantTWwIiyoyyvF-5-9">
          <mxGeometry width="50" height="50" relative="1" as="geometry">
            <mxPoint x="1090" y="530" as="sourcePoint" />
            <mxPoint x="1050" y="320" as="targetPoint" />
          </mxGeometry>
        </mxCell>
        <mxCell id="kk4YantTWwIiyoyyvF-5-12" value="" style="endArrow=none;html=1;rounded=0;exitX=0.5;exitY=0.5;exitDx=0;exitDy=0;exitPerimeter=0;entryX=0;entryY=0.5;entryDx=0;entryDy=0;" edge="1" parent="1" source="kk4YantTWwIiyoyyvF-5-1" target="kk4YantTWwIiyoyyvF-5-13">
          <mxGeometry width="50" height="50" relative="1" as="geometry">
            <mxPoint x="960" y="490" as="sourcePoint" />
            <mxPoint x="1070" y="450" as="targetPoint" />
          </mxGeometry>
        </mxCell>
        <mxCell id="kk4YantTWwIiyoyyvF-5-19" value="" style="endArrow=none;html=1;rounded=0;exitX=0.5;exitY=0.5;exitDx=0;exitDy=0;exitPerimeter=0;" edge="1" parent="1" source="kk4YantTWwIiyoyyvF-5-1" target="kk4YantTWwIiyoyyvF-5-14">
          <mxGeometry width="50" height="50" relative="1" as="geometry">
            <mxPoint x="905" y="440" as="sourcePoint" />
            <mxPoint x="1070" y="410" as="targetPoint" />
          </mxGeometry>
        </mxCell>
        <mxCell id="kk4YantTWwIiyoyyvF-5-22" value="" style="endArrow=none;html=1;rounded=0;" edge="1" parent="1" target="kk4YantTWwIiyoyyvF-5-23" source="kk4YantTWwIiyoyyvF-5-1">
          <mxGeometry width="50" height="50" relative="1" as="geometry">
            <mxPoint x="860" y="420" as="sourcePoint" />
            <mxPoint x="1145" y="705.27" as="targetPoint" />
          </mxGeometry>
        </mxCell>
        <mxCell id="kk4YantTWwIiyoyyvF-5-35" value="" style="endArrow=none;html=1;rounded=0;entryX=0.077;entryY=0.277;entryDx=0;entryDy=0;entryPerimeter=0;exitX=0.5;exitY=0.5;exitDx=0;exitDy=0;exitPerimeter=0;" edge="1" parent="1" source="kk4YantTWwIiyoyyvF-5-1" target="kk4YantTWwIiyoyyvF-5-34">
          <mxGeometry width="50" height="50" relative="1" as="geometry">
            <mxPoint x="905" y="440" as="sourcePoint" />
            <mxPoint x="1154" y="577" as="targetPoint" />
          </mxGeometry>
        </mxCell>
        <mxCell id="kk4YantTWwIiyoyyvF-5-37" value="" style="swimlane;startSize=0;" vertex="1" parent="1">
          <mxGeometry x="930" y="30" width="810" height="870" as="geometry" />
        </mxCell>
        <mxCell id="kk4YantTWwIiyoyyvF-5-13" value="Save a file" style="ellipse;whiteSpace=wrap;html=1;" vertex="1" parent="kk4YantTWwIiyoyyvF-5-37">
          <mxGeometry x="91" y="185" width="120" height="80" as="geometry" />
        </mxCell>
        <mxCell id="kk4YantTWwIiyoyyvF-5-16" value="Select the path" style="ellipse;whiteSpace=wrap;html=1;" vertex="1" parent="kk4YantTWwIiyoyyvF-5-37">
          <mxGeometry x="211" y="20" width="120" height="80" as="geometry" />
        </mxCell>
        <mxCell id="kk4YantTWwIiyoyyvF-5-15" value="&amp;lt;&amp;lt;include&amp;gt;&amp;gt;" style="endArrow=open;endSize=12;dashed=1;html=1;rounded=0;" edge="1" parent="kk4YantTWwIiyoyyvF-5-37" source="kk4YantTWwIiyoyyvF-5-13" target="kk4YantTWwIiyoyyvF-5-16">
          <mxGeometry width="160" relative="1" as="geometry">
            <mxPoint x="240" y="400" as="sourcePoint" />
            <mxPoint x="430" y="340" as="targetPoint" />
          </mxGeometry>
        </mxCell>
        <mxCell id="kk4YantTWwIiyoyyvF-5-14" value="Upload a file" style="ellipse;whiteSpace=wrap;html=1;" vertex="1" parent="kk4YantTWwIiyoyyvF-5-37">
          <mxGeometry x="42.5" y="90" width="120" height="80" as="geometry" />
        </mxCell>
        <mxCell id="kk4YantTWwIiyoyyvF-5-17" value="&amp;lt;&amp;lt;include&amp;gt;&amp;gt;" style="endArrow=open;endSize=12;dashed=1;html=1;rounded=0;exitX=0.926;exitY=0.235;exitDx=0;exitDy=0;exitPerimeter=0;" edge="1" parent="kk4YantTWwIiyoyyvF-5-37" target="kk4YantTWwIiyoyyvF-5-16" source="kk4YantTWwIiyoyyvF-5-14">
          <mxGeometry width="160" relative="1" as="geometry">
            <mxPoint x="280" y="451" as="sourcePoint" />
            <mxPoint x="257.5859214229715" y="69.46808632861075" as="targetPoint" />
          </mxGeometry>
        </mxCell>
        <mxCell id="kk4YantTWwIiyoyyvF-5-34" value="Calculate" style="ellipse;whiteSpace=wrap;html=1;" vertex="1" parent="kk4YantTWwIiyoyyvF-5-37">
          <mxGeometry x="211" y="506" width="120" height="80" as="geometry" />
        </mxCell>
        <mxCell id="kk4YantTWwIiyoyyvF-5-48" value="" style="endArrow=block;endSize=16;endFill=0;html=1;rounded=0;" edge="1" parent="kk4YantTWwIiyoyyvF-5-37" source="kk4YantTWwIiyoyyvF-5-45" target="kk4YantTWwIiyoyyvF-5-34">
          <mxGeometry width="160" relative="1" as="geometry">
            <mxPoint x="240" y="770" as="sourcePoint" />
            <mxPoint x="241" y="705" as="targetPoint" />
          </mxGeometry>
        </mxCell>
        <mxCell id="kk4YantTWwIiyoyyvF-5-39" value="Calculate the sum" style="ellipse;whiteSpace=wrap;html=1;" vertex="1" parent="kk4YantTWwIiyoyyvF-5-37">
          <mxGeometry x="30" y="586" width="120" height="80" as="geometry" />
        </mxCell>
        <mxCell id="kk4YantTWwIiyoyyvF-5-47" value="" style="endArrow=block;endSize=16;endFill=0;html=1;rounded=0;entryX=0.5;entryY=1;entryDx=0;entryDy=0;" edge="1" parent="kk4YantTWwIiyoyyvF-5-37" source="kk4YantTWwIiyoyyvF-5-44" target="kk4YantTWwIiyoyyvF-5-34">
          <mxGeometry x="0.0135" width="160" relative="1" as="geometry">
            <mxPoint x="151" y="786" as="sourcePoint" />
            <mxPoint x="231" y="695" as="targetPoint" />
            <mxPoint as="offset" />
          </mxGeometry>
        </mxCell>
        <mxCell id="kk4YantTWwIiyoyyvF-5-43" value="Calculate the difference" style="ellipse;whiteSpace=wrap;html=1;" vertex="1" parent="kk4YantTWwIiyoyyvF-5-37">
          <mxGeometry x="20" y="676" width="120" height="80" as="geometry" />
        </mxCell>
        <mxCell id="kk4YantTWwIiyoyyvF-5-46" value="" style="endArrow=block;endSize=16;endFill=0;html=1;rounded=0;" edge="1" parent="kk4YantTWwIiyoyyvF-5-37" source="kk4YantTWwIiyoyyvF-5-43" target="kk4YantTWwIiyoyyvF-5-34">
          <mxGeometry width="160" relative="1" as="geometry">
            <mxPoint x="136" y="726" as="sourcePoint" />
            <mxPoint x="242" y="698" as="targetPoint" />
          </mxGeometry>
        </mxCell>
        <mxCell id="kk4YantTWwIiyoyyvF-5-44" value="Calculate the fraction" style="ellipse;whiteSpace=wrap;html=1;" vertex="1" parent="kk4YantTWwIiyoyyvF-5-37">
          <mxGeometry x="120" y="716" width="120" height="80" as="geometry" />
        </mxCell>
        <mxCell id="kk4YantTWwIiyoyyvF-5-38" value="" style="endArrow=block;endSize=16;endFill=0;html=1;rounded=0;" edge="1" parent="kk4YantTWwIiyoyyvF-5-37" source="kk4YantTWwIiyoyyvF-5-39" target="kk4YantTWwIiyoyyvF-5-34">
          <mxGeometry width="160" relative="1" as="geometry">
            <mxPoint x="180" y="700" as="sourcePoint" />
            <mxPoint x="190" y="820" as="targetPoint" />
          </mxGeometry>
        </mxCell>
        <mxCell id="kk4YantTWwIiyoyyvF-5-45" value="Calculate the product" style="ellipse;whiteSpace=wrap;html=1;" vertex="1" parent="kk4YantTWwIiyoyyvF-5-37">
          <mxGeometry x="220" y="726" width="120" height="80" as="geometry" />
        </mxCell>
        <mxCell id="kk4YantTWwIiyoyyvF-5-50" value="" style="endArrow=block;endSize=16;endFill=0;html=1;rounded=0;entryX=0.655;entryY=1.022;entryDx=0;entryDy=0;entryPerimeter=0;" edge="1" parent="kk4YantTWwIiyoyyvF-5-37" source="kk4YantTWwIiyoyyvF-5-49" target="kk4YantTWwIiyoyyvF-5-34">
          <mxGeometry width="160" relative="1" as="geometry">
            <mxPoint x="351" y="740" as="sourcePoint" />
            <mxPoint x="364" y="660" as="targetPoint" />
          </mxGeometry>
        </mxCell>
        <mxCell id="kk4YantTWwIiyoyyvF-5-49" value="Calculate the minimal value" style="ellipse;whiteSpace=wrap;html=1;" vertex="1" parent="kk4YantTWwIiyoyyvF-5-37">
          <mxGeometry x="331" y="726" width="120" height="80" as="geometry" />
        </mxCell>
        <mxCell id="kk4YantTWwIiyoyyvF-5-52" value="" style="endArrow=block;endSize=16;endFill=0;html=1;rounded=0;" edge="1" parent="kk4YantTWwIiyoyyvF-5-37" source="kk4YantTWwIiyoyyvF-5-51" target="kk4YantTWwIiyoyyvF-5-34">
          <mxGeometry width="160" relative="1" as="geometry">
            <mxPoint x="441" y="684" as="sourcePoint" />
            <mxPoint x="360" y="636" as="targetPoint" />
          </mxGeometry>
        </mxCell>
        <mxCell id="kk4YantTWwIiyoyyvF-5-51" value="Calculate the maximal value" style="ellipse;whiteSpace=wrap;html=1;" vertex="1" parent="kk4YantTWwIiyoyyvF-5-37">
          <mxGeometry x="440" y="696" width="120" height="80" as="geometry" />
        </mxCell>
        <mxCell id="kk4YantTWwIiyoyyvF-5-54" value="" style="endArrow=block;endSize=16;endFill=0;html=1;rounded=0;" edge="1" parent="kk4YantTWwIiyoyyvF-5-37" source="kk4YantTWwIiyoyyvF-5-53" target="kk4YantTWwIiyoyyvF-5-34">
          <mxGeometry width="160" relative="1" as="geometry">
            <mxPoint x="458" y="616" as="sourcePoint" />
            <mxPoint x="311" y="610" as="targetPoint" />
          </mxGeometry>
        </mxCell>
        <mxCell id="kk4YantTWwIiyoyyvF-5-53" value="Calculate the amount" style="ellipse;whiteSpace=wrap;html=1;" vertex="1" parent="kk4YantTWwIiyoyyvF-5-37">
          <mxGeometry x="550" y="676" width="120" height="80" as="geometry" />
        </mxCell>
        <mxCell id="kk4YantTWwIiyoyyvF-5-56" value="" style="endArrow=block;endSize=16;endFill=0;html=1;rounded=0;" edge="1" parent="kk4YantTWwIiyoyyvF-5-37" source="kk4YantTWwIiyoyyvF-5-55" target="kk4YantTWwIiyoyyvF-5-34">
          <mxGeometry width="160" relative="1" as="geometry">
            <mxPoint x="433" y="710" as="sourcePoint" />
            <mxPoint x="316" y="676" as="targetPoint" />
          </mxGeometry>
        </mxCell>
        <mxCell id="kk4YantTWwIiyoyyvF-5-55" value="Calculate the average value" style="ellipse;whiteSpace=wrap;html=1;" vertex="1" parent="kk4YantTWwIiyoyyvF-5-37">
          <mxGeometry x="590" y="606" width="120" height="80" as="geometry" />
        </mxCell>
        <mxCell id="kk4YantTWwIiyoyyvF-5-59" value="&amp;lt;&amp;lt;extend&amp;gt;&amp;gt;" style="endArrow=open;endSize=12;dashed=1;html=1;rounded=0;" edge="1" parent="kk4YantTWwIiyoyyvF-5-37" source="kk4YantTWwIiyoyyvF-5-60" target="kk4YantTWwIiyoyyvF-5-34">
          <mxGeometry width="160" relative="1" as="geometry">
            <mxPoint x="443" y="578" as="sourcePoint" />
            <mxPoint x="377" y="722" as="targetPoint" />
          </mxGeometry>
        </mxCell>
        <mxCell id="kk4YantTWwIiyoyyvF-5-60" value="Display error message" style="ellipse;whiteSpace=wrap;html=1;" vertex="1" parent="kk4YantTWwIiyoyyvF-5-37">
          <mxGeometry x="430" y="426" width="120" height="80" as="geometry" />
        </mxCell>
        <mxCell id="kk4YantTWwIiyoyyvF-5-23" value="Erase the cell&#39;s value" style="ellipse;whiteSpace=wrap;html=1;" vertex="1" parent="kk4YantTWwIiyoyyvF-5-37">
          <mxGeometry x="200" y="370" width="120" height="80" as="geometry" />
        </mxCell>
        <mxCell id="kk4YantTWwIiyoyyvF-5-9" value="Set the cell&#39;s value" style="ellipse;whiteSpace=wrap;html=1;" vertex="1" parent="kk4YantTWwIiyoyyvF-5-37">
          <mxGeometry x="180" y="290" width="120" height="80" as="geometry" />
        </mxCell>
        <mxCell id="kk4YantTWwIiyoyyvF-5-71" value="Validate a format" style="ellipse;whiteSpace=wrap;html=1;" vertex="1" parent="kk4YantTWwIiyoyyvF-5-37">
          <mxGeometry x="420" y="50" width="120" height="80" as="geometry" />
        </mxCell>
        <mxCell id="kk4YantTWwIiyoyyvF-5-70" value="&amp;lt;&amp;lt;include&amp;gt;&amp;gt;" style="endArrow=open;endSize=12;dashed=1;html=1;rounded=0;" edge="1" parent="kk4YantTWwIiyoyyvF-5-37" source="kk4YantTWwIiyoyyvF-5-16" target="kk4YantTWwIiyoyyvF-5-71">
          <mxGeometry width="160" relative="1" as="geometry">
            <mxPoint x="344" y="129" as="sourcePoint" />
            <mxPoint x="410" y="101" as="targetPoint" />
          </mxGeometry>
        </mxCell>
        <mxCell id="kk4YantTWwIiyoyyvF-5-63" value="System" style="shape=umlActor;verticalLabelPosition=bottom;verticalAlign=top;html=1;outlineConnect=0;" vertex="1" parent="1">
          <mxGeometry x="1780" y="356" width="50" height="100" as="geometry" />
        </mxCell>
        <mxCell id="kk4YantTWwIiyoyyvF-5-66" value="" style="endArrow=none;html=1;rounded=0;exitX=1;exitY=0;exitDx=0;exitDy=0;entryX=0.5;entryY=0.5;entryDx=0;entryDy=0;entryPerimeter=0;" edge="1" parent="1" source="kk4YantTWwIiyoyyvF-5-60" target="kk4YantTWwIiyoyyvF-5-63">
          <mxGeometry width="50" height="50" relative="1" as="geometry">
            <mxPoint x="875" y="430" as="sourcePoint" />
            <mxPoint x="1190" y="578" as="targetPoint" />
          </mxGeometry>
        </mxCell>
        <mxCell id="kk4YantTWwIiyoyyvF-5-72" value="" style="endArrow=none;html=1;rounded=0;entryX=0.25;entryY=0.1;entryDx=0;entryDy=0;entryPerimeter=0;" edge="1" parent="1" source="kk4YantTWwIiyoyyvF-5-71" target="kk4YantTWwIiyoyyvF-5-63">
          <mxGeometry width="50" height="50" relative="1" as="geometry">
            <mxPoint x="1472" y="478" as="sourcePoint" />
            <mxPoint x="1725" y="290" as="targetPoint" />
          </mxGeometry>
        </mxCell>
      </root>
    </mxGraphModel>
  </diagram>
</mxfile>
